Coordinates
nRows=415
nColumns=2
inDegrees=yes
endheader
time	ankle_angle_r	
3.39315	  9.536729	
3.42641	  9.534625	
3.45968	  9.536524	
3.49294	  9.537480	
3.52621	  9.533707	
3.55948	  9.528589	
3.59274	  9.525255	
3.62601	  9.523128	
3.65927	  9.520678	
3.69254	  9.518618	
3.72581	  9.519190	
3.75907	  9.520535	
3.79234	  9.519223	
3.8256	  9.517615	
3.85887	  9.518158	
3.89214	  9.517391	
3.9254	  9.511891	
3.95867	  9.501948	
3.99194	  9.491326	
4.0252	  9.484144	
4.05847	  9.477883	
4.09173	  9.467514	
4.125	  9.454065	
4.15827	  9.442005	
4.19153	  9.435959	
4.2248	  9.437797	
4.25806	  9.443097	
4.29133	  9.447432	
4.3246	  9.450533	
4.35786	  9.451768	
4.39113	  9.451779	
4.4244	  9.453082	
4.45766	  9.453459	
4.49093	  9.451713	
4.52419	  9.454944	
4.55746	  9.464990	
4.59073	  9.472936	
4.62399	  9.474184	
4.65726	  9.472570	
4.69052	  9.473543	
4.72379	  9.479763	
4.75706	  9.487605	
4.79032	  9.492127	
4.82359	  9.493331	
4.85685	  9.491498	
4.89012	  9.487822	
4.92339	  9.488181	
4.95665	  9.493257	
4.98992	  9.495846	
5.02319	  9.493031	
5.05645	  9.488231	
5.08972	  9.485147	
5.12298	  9.485400	
5.15625	  9.486950	
5.18952	  9.488047	
5.22278	  9.490844	
5.25605	  9.494812	
5.28931	  9.496660	
5.32258	  9.497692	
5.35585	  9.498652	
5.38911	  9.495890	
5.42238	  9.490453	
5.45565	  9.488086	
5.48891	  9.491077	
5.52218	  9.496003	
5.55544	  9.494174	
5.58871	  9.479337	
5.62198	  9.457710	
5.65524	  9.442792	
5.68851	  9.442828	
5.72177	  9.455073	
5.75504	  9.466938	
5.78831	  9.467226	
5.82157	  9.459208	
5.85484	  9.455810	
5.8881	  9.464778	
5.92137	  9.482157	
5.95464	  9.495815	
5.9879	  9.498370	
6.02117	  9.496823	
6.05444	  9.502442	
6.0877	  9.514404	
6.12097	  9.520953	
6.15423	  9.516835	
6.1875	  9.511813	
6.22077	  9.514353	
6.25403	  9.520136	
6.2873	  9.526437	
6.32056	  9.534621	
6.35383	  9.539770	
6.3871	  9.540754	
6.42036	  9.542967	
6.45363	  9.544556	
6.4869	  9.541222	
6.52016	  9.535984	
6.55343	  9.534388	
6.58669	  9.538637	
6.61996	  9.544365	
6.65323	  9.546013	
6.68649	  9.547166	
6.71976	  9.551591	
6.75302	  9.552621	
6.78629	  9.546738	
6.81956	  9.540940	
6.85282	  9.540190	
6.88609	  9.542244	
6.91935	  9.541946	
6.95262	  9.536429	
6.98589	  9.529360	
7.01915	  9.523095	
7.05242	  9.511312	
7.08569	  9.490987	
7.11895	  9.469945	
7.15222	  9.456672	
7.18548	  9.453928	
7.21875	  9.456675	
7.25202	  9.454642	
7.28528	  9.448569	
7.31855	  9.449427	
7.35181	  9.457123	
7.38508	  9.465312	
7.41835	  9.475278	
7.45161	  9.487615	
7.48488	  9.501435	
7.51815	  9.517884	
7.55141	  9.531871	
7.58468	  9.535804	
7.61794	  9.529491	
7.65121	  9.518529	
7.68448	  9.509800	
7.71774	  9.506275	
7.75101	  9.507160	
7.78427	  9.513351	
7.81754	  9.521328	
7.85081	  9.521591	
7.88407	  9.513755	
7.91734	  9.507250	
7.9506	  9.506854	
7.98387	  9.508986	
8.01714	  9.507556	
8.0504	  9.502608	
8.08367	  9.500349	
8.11694	  9.500665	
8.1502	  9.498716	
8.18347	  9.496786	
8.21673	  9.498289	
8.25	  9.500099	
8.28327	  9.499076	
8.31653	  9.496023	
8.3498	  9.493385	
8.38306	  9.491692	
8.41633	  9.487559	
8.4496	  9.480059	
8.48286	  9.472332	
8.51613	  9.462420	
8.5494	  9.447655	
8.58266	  9.433519	
8.61593	  9.423477	
8.64919	  9.414672	
8.68246	  9.408778	
8.71573	  9.411519	
8.74899	  9.423551	
8.78226	  9.437582	
8.81552	  9.444249	
8.84879	  9.445645	
8.88206	  9.454201	
8.91532	  9.468928	
8.94859	  9.472370	
8.98185	  9.459359	
9.01512	  9.446034	
9.04839	  9.447241	
9.08165	  9.460345	
9.11492	  9.472622	
9.14819	  9.479112	
9.18145	  9.485049	
9.21472	  9.491666	
9.24798	  9.495521	
9.28125	  9.497665	
9.31452	  9.498841	
9.34778	  9.497398	
9.38105	  9.496468	
9.41431	  9.500092	
9.44758	  9.507066	
9.48085	  9.513020	
9.51411	  9.514749	
9.54738	  9.515004	
9.58065	  9.517163	
9.61391	  9.517474	
9.64718	  9.513771	
9.68044	  9.510437	
9.71371	  9.510027	
9.74698	  9.511967	
9.78024	  9.515182	
9.81351	  9.517932	
9.84677	  9.518409	
9.88004	  9.514206	
9.91331	  9.506272	
9.94657	  9.501327	
9.97984	  9.501816	
10.0131	  9.501567	
10.0464	  9.495172	
10.0796	  9.484094	
10.1129	  9.474996	
10.1462	  9.472252	
10.1794	  9.472067	
10.2127	  9.471680	
10.246	  9.475435	
10.2792	  9.481507	
10.3125	  9.482158	
10.3458	  9.480796	
10.379	  9.485156	
10.4123	  9.491903	
10.4456	  9.497256	
10.4788	  9.505921	
10.5121	  9.519229	
10.5454	  9.530552	
10.5786	  9.533874	
10.6119	  9.529914	
10.6452	  9.525959	
10.6784	  9.526914	
10.7117	  9.529670	
10.745	  9.532518	
10.7782	  9.537956	
10.8115	  9.544014	
10.8448	  9.546695	
10.878	  9.545382	
10.9113	  9.540613	
10.9446	  9.535648	
10.9778	  9.534500	
11.0111	  9.536003	
11.0444	  9.539019	
11.0776	  9.543777	
11.1109	  9.545517	
11.1442	  9.541363	
11.1774	  9.535315	
11.2107	  9.529005	
11.244	  9.520858	
11.2772	  9.512700	
11.3105	  9.509173	
11.3437	  9.512536	
11.377	  9.517798	
11.4103	  9.518210	
11.4435	  9.515085	
11.4768	  9.511475	
11.5101	  9.505632	
11.5433	  9.498124	
11.5766	  9.490631	
11.6099	  9.479463	
11.6431	  9.459439	
11.6764	  9.431688	
11.7097	  9.409514	
11.7429	  9.408863	
11.7762	  9.427548	
11.8095	  9.447571	
11.8427	  9.456472	
11.876	  9.455583	
11.9093	  9.452360	
11.9425	  9.451212	
11.9758	  9.453620	
12.0091	  9.462321	
12.0423	  9.475205	
12.0756	  9.482051	
12.1089	  9.479438	
12.1421	  9.476476	
12.1754	  9.478406	
12.2087	  9.482801	
12.2419	  9.489007	
12.2752	  9.494516	
12.3085	  9.494513	
12.3417	  9.490548	
12.375	  9.487885	
12.4083	  9.490097	
12.4415	  9.497166	
12.4748	  9.501492	
12.5081	  9.497430	
12.5413	  9.492225	
12.5746	  9.491673	
12.6079	  9.492184	
12.6411	  9.493914	
12.6744	  9.498382	
12.7077	  9.500105	
12.7409	  9.495854	
12.7742	  9.489879	
12.8075	  9.486842	
12.8407	  9.485588	
12.874	  9.479874	
12.9073	  9.471014	
12.9405	  9.472117	
12.9738	  9.485746	
13.0071	  9.495952	
13.0403	  9.494708	
13.0736	  9.493300	
13.1069	  9.500762	
13.1401	  9.508585	
13.1734	  9.503881	
13.2067	  9.488554	
13.2399	  9.475890	
13.2732	  9.472409	
13.3065	  9.471354	
13.3397	  9.463418	
13.373	  9.449392	
13.4062	  9.439980	
13.4395	  9.444059	
13.4728	  9.459111	
13.506	  9.472673	
13.5393	  9.472721	
13.5726	  9.459833	
13.6058	  9.447899	
13.6391	  9.447304	
13.6724	  9.452111	
13.7056	  9.450515	
13.7389	  9.442549	
13.7722	  9.440608	
13.8054	  9.451542	
13.8387	  9.464695	
13.872	  9.468227	
13.9052	  9.468386	
13.9385	  9.475656	
13.9718	  9.487586	
14.005	  9.498878	
14.0383	  9.506470	
14.0716	  9.503097	
14.1048	  9.486124	
14.1381	  9.465496	
14.1714	  9.454134	
14.2046	  9.456890	
14.2379	  9.467175	
14.2712	  9.475099	
14.3044	  9.478792	
14.3377	  9.479994	
14.371	  9.475391	
14.4042	  9.462708	
14.4375	  9.449474	
14.4708	  9.445561	
14.504	  9.449696	
14.5373	  9.452560	
14.5706	  9.450388	
14.6038	  9.448675	
14.6371	  9.453108	
14.6704	  9.463415	
14.7036	  9.477058	
14.7369	  9.489637	
14.7702	  9.495243	
14.8034	  9.493121	
14.8367	  9.485982	
14.87	  9.475208	
14.9032	  9.462967	
14.9365	  9.451806	
14.9698	  9.445483	
15.003	  9.446374	
15.0363	  9.446206	
15.0696	  9.437294	
15.1028	  9.428230	
15.1361	  9.429638	
15.1694	  9.438388	
15.2026	  9.443921	
15.2359	  9.441007	
15.2692	  9.435644	
15.3024	  9.436721	
15.3357	  9.444404	
15.369	  9.451825	
15.4022	  9.452660	
15.4355	  9.447351	
15.4687	  9.444982	
15.502	  9.451914	
15.5353	  9.461263	
15.5685	  9.463609	
15.6018	  9.460025	
15.6351	  9.455858	
15.6683	  9.453407	
15.7016	  9.453753	
15.7349	  9.453540	
15.7681	  9.446137	
15.8014	  9.434544	
15.8347	  9.430748	
15.8679	  9.438851	
15.9012	  9.447459	
15.9345	  9.442418	
15.9677	  9.427625	
16.001	  9.422508	
16.0343	  9.434601	
16.0675	  9.450981	
16.1008	  9.457347	
16.1341	  9.450491	
16.1673	  9.438268	
16.2006	  9.434712	
16.2339	  9.442778	
16.2671	  9.450864	
16.3004	  9.455990	
16.3337	  9.464980	
16.3669	  9.476088	
16.4002	  9.482672	
16.4335	  9.484279	
16.4667	  9.483888	
16.5	  9.479764	
16.5333	  9.467756	
16.5665	  9.451926	
16.5998	  9.443279	
16.6331	  9.449161	
16.6663	  9.467769	
16.6996	  9.487820	
16.7329	  9.497162	
16.7661	  9.495825	
16.7994	  9.490827	
16.8327	  9.482818	
16.8659	  9.472394	
16.8992	  9.465917	
16.9325	  9.466146	
16.9657	  9.471038	
16.999	  9.479353	
17.0323	  9.491737	
17.0655	  9.508702	
17.0988	  9.523316	
17.1321	  9.522851	
17.1653	  9.506171	
